<svg width="32" height="31" viewBox="0 0 32 31" fill="none" xmlns="http://www.w3.org/2000/svg">
<path d="M2.00015 13.1849H24.3402L14.5802 3.42489C13.8001 2.64489 13.8001 1.36489 14.5802 0.584888C14.7652 0.39948 14.985 0.252385 15.2269 0.152022C15.4688 0.0516594 15.7282 0 15.9902 0C16.2521 0 16.5115 0.0516594 16.7534 0.152022C16.9953 0.252385 17.2151 0.39948 17.4002 0.584888L30.5802 13.7649C30.7656 13.9499 30.9127 14.1697 31.013 14.4116C31.1134 14.6536 31.165 14.913 31.165 15.1749C31.165 15.4368 31.1134 15.6962 31.013 15.9381C30.9127 16.1801 30.7656 16.3999 30.5802 16.5849L17.4002 29.7649C17.215 29.9501 16.9952 30.0969 16.7532 30.1971C16.5113 30.2973 16.252 30.3489 15.9902 30.3489C15.7283 30.3489 15.469 30.2973 15.2271 30.1971C14.9851 30.0969 14.7653 29.9501 14.5802 29.7649C14.395 29.5797 14.2481 29.3599 14.1479 29.118C14.0477 28.876 13.9961 28.6167 13.9961 28.3549C13.9961 28.093 14.0477 27.8337 14.1479 27.5918C14.2481 27.3499 14.395 27.13 14.5802 26.9449L24.3402 17.1849H2.00015C0.90015 17.1849 0.000150681 16.2849 0.000150681 15.1849C0.000150681 14.0849 0.90015 13.1849 2.00015 13.1849Z" fill="#F24822"/>
</svg>
