<svg width="32" height="31" viewBox="0 0 32 31" fill="none" xmlns="http://www.w3.org/2000/svg">
<path d="M29.1649 13.5103H6.82489L16.5849 3.75033C17.3649 2.97033 17.3649 1.69033 16.5849 0.910327C16.3999 0.72492 16.1801 0.577825 15.9381 0.477462C15.6962 0.377099 15.4368 0.325439 15.1749 0.325439C14.913 0.325439 14.6536 0.377099 14.4116 0.477462C14.1697 0.577825 13.9499 0.72492 13.7649 0.910327L0.584888 14.0903C0.399481 14.2754 0.252386 14.4951 0.152023 14.7371C0.0516604 14.979 0 15.2384 0 15.5003C0 15.7623 0.0516604 16.0216 0.152023 16.2636C0.252386 16.5055 0.399481 16.7253 0.584888 16.9103L13.7649 30.0903C13.9501 30.2755 14.1699 30.4224 14.4118 30.5226C14.6537 30.6228 14.913 30.6744 15.1749 30.6744C15.4367 30.6744 15.696 30.6228 15.938 30.5226C16.1799 30.4224 16.3997 30.2755 16.5849 30.0903C16.7701 29.9052 16.9169 29.6853 17.0171 29.4434C17.1174 29.2015 17.1689 28.9422 17.1689 28.6803C17.1689 28.4185 17.1174 28.1592 17.0171 27.9172C16.9169 27.6753 16.7701 27.4555 16.5849 27.2703L6.82489 17.5103H29.1649C30.2649 17.5103 31.1649 16.6103 31.1649 15.5103C31.1649 14.4103 30.2649 13.5103 29.1649 13.5103Z" fill="#F24822"/>
</svg>
