<svg width="82" height="102" viewBox="0 0 82 102" fill="none" xmlns="http://www.w3.org/2000/svg">
<path d="M40.8 -0.000244141L41.3967 0.0354557C42.5351 0.169707 43.5951 0.68356 44.4056 1.49411C45.2162 2.30467 45.73 3.36465 45.8643 4.50306L45.9 5.09976V25.4998L45.9255 26.2648C46.108 28.6932 47.1534 30.9763 48.8726 32.7011C50.5918 34.4259 52.8714 35.4787 55.2993 35.6692L56.1 35.6998H76.5L77.0967 35.7355C78.2351 35.8697 79.2951 36.3836 80.1056 37.1941C80.9162 38.0047 81.43 39.0647 81.5643 40.2031L81.6 40.7998V86.6998C81.6002 90.6023 80.1091 94.3575 77.4319 97.1969C74.7546 100.036 71.0935 101.745 67.1976 101.974L66.3 102H15.3C11.3974 102 7.64227 100.509 4.80287 97.8316C1.96346 95.1543 0.254452 91.4932 0.0255006 87.5974L2.37683e-08 86.6998V15.2998C-0.000217371 11.3972 1.49086 7.64203 4.16815 4.80263C6.84543 1.96322 10.5065 0.254208 14.4024 0.0252564L15.3 -0.000244141H40.8Z" fill="#F24822"/>
<path d="M76.5001 25.5001H56.1001L56.095 5.09497L76.5001 25.5001Z" fill="#F24822"/>
</svg>
