<svg width="105" height="102" viewBox="0 0 105 102" fill="none" xmlns="http://www.w3.org/2000/svg">
<path d="M80.005 38.3483L96.5091 54.3032C99.1872 56.8577 101.316 59.8991 102.773 63.2523C104.231 66.6055 104.987 70.2043 105 73.8414C105.012 77.4784 104.281 81.082 102.847 84.4446C101.413 87.8071 99.305 90.8623 96.6447 93.4341C93.9844 96.0059 90.8241 98.0436 87.3458 99.4298C83.8675 100.816 80.1399 101.523 76.3776 101.511C72.6154 101.499 68.8928 100.768 65.4241 99.3588C61.9555 97.9501 58.8094 95.892 56.167 93.303L50.6691 87.988C49.9257 87.2946 49.3326 86.4649 48.9244 85.5475C48.5162 84.6301 48.3011 83.6432 48.2917 82.6446C48.2822 81.6459 48.4786 80.6555 48.8693 79.731C49.26 78.8065 49.8373 77.9665 50.5675 77.2599C51.2976 76.5534 52.166 75.9946 53.1219 75.616C54.0779 75.2374 55.1023 75.0466 56.1353 75.0548C57.1683 75.063 58.1893 75.27 59.1387 75.6637C60.0881 76.0575 60.9468 76.6301 61.6649 77.3481L67.1732 82.6681C69.6089 85.0015 72.9016 86.3073 76.3307 86.2996C79.7598 86.2918 83.0462 84.9713 85.4706 82.6268C87.8951 80.2824 89.2602 77.105 89.2672 73.79C89.2742 70.4749 87.9226 67.2921 85.5081 64.9381L69.0041 48.9832C67.2202 47.258 64.9544 46.0734 62.4844 45.5746C60.0144 45.0758 57.4476 45.2846 55.0985 46.1753C54.2617 46.4962 53.4768 46.8238 52.7438 47.1581L50.3372 48.2461C47.1214 49.6501 44.6473 50.2518 41.499 47.2132C36.9762 42.8409 38.1484 38.8045 43.6619 35.1292C49.1541 31.4757 55.7965 29.7972 62.4356 30.3853C69.0747 30.9733 75.291 33.7908 80.005 38.3483ZM48.833 8.21341L54.3309 13.5284C55.7488 14.9462 56.5339 16.8458 56.5172 18.8178C56.5004 20.7898 55.6831 22.6766 54.2413 24.0718C52.7995 25.4669 50.8485 26.2588 48.8086 26.2769C46.7687 26.2949 44.8031 25.5377 43.3351 24.1683L37.832 18.8534C36.6362 17.6558 35.2057 16.7004 33.6239 16.0431C32.0421 15.3857 30.3407 15.0394 28.619 15.0245C26.8973 15.0095 25.1898 15.3262 23.596 15.9561C22.0023 16.5859 20.5542 17.5163 19.3364 18.693C18.1186 19.8696 17.1554 21.2689 16.5029 22.8093C15.8505 24.3496 15.5219 26.0002 15.5364 27.6646C15.5509 29.3291 15.9081 30.974 16.5872 32.5036C17.2663 34.0331 18.2538 35.4166 19.4919 36.5733L35.9959 52.5282C37.7798 54.2534 40.0456 55.438 42.5156 55.9368C44.9855 56.4356 47.5524 56.2268 49.9015 55.3361C50.7383 55.0152 51.5232 54.6876 52.2562 54.3533L54.6628 53.2653C57.8786 51.8613 60.3578 51.2596 63.501 54.2982C68.0238 58.6705 66.8516 62.7068 61.3381 66.3822C55.8459 70.0357 49.2035 71.7142 42.5644 71.1261C35.9253 70.5381 29.709 67.7206 24.995 63.1631L8.49092 47.2082C5.81282 44.6537 3.68387 41.6123 2.22666 38.2591C0.769455 34.9059 0.0127642 31.3071 0.000160097 27.67C-0.012444 24.033 0.719289 20.4294 2.15323 17.0668C3.58716 13.7043 5.69498 10.6491 8.35531 8.07731C11.0156 5.50549 14.1759 3.46781 17.6542 2.08158C21.1325 0.695355 24.8601 -0.0120299 28.6224 0.00015477C32.3846 0.0123395 36.1072 0.743854 39.5758 2.15258C43.0445 3.5613 46.1906 5.62442 48.833 8.21341Z" fill="#F24822"/>
</svg>
