<svg width="57" height="57" viewBox="0 0 57 57" fill="none" xmlns="http://www.w3.org/2000/svg">
<path fill-rule="evenodd" clip-rule="evenodd" d="M28.3716 3.11308e-10C32.0924 -1.74409e-05 35.7768 0.732832 39.2143 2.1567C42.6519 3.58058 45.7754 5.66759 48.4064 8.29858C51.0374 10.9296 53.1244 14.053 54.5483 17.4906C55.9722 20.9281 56.705 24.6125 56.705 28.3333C56.705 43.9814 44.0197 56.6667 28.3716 56.6667C12.7237 56.6667 0.0383301 43.9814 0.0383301 28.3333C0.0383301 12.6853 12.7237 3.11308e-10 28.3716 3.11308e-10ZM31.205 31.1667H25.5383C18.5238 31.1667 12.5017 35.415 9.90431 41.4793C14.0141 47.2422 20.754 51 28.3716 51C35.9892 51 42.7292 47.2422 46.8391 41.4789C44.2417 35.415 38.2195 31.1667 31.205 31.1667ZM28.3716 8.5C23.6772 8.5 19.8716 12.3056 19.8716 17C19.8716 21.6944 23.6772 25.5 28.3716 25.5C33.066 25.5 36.8716 21.6944 36.8716 17C36.8716 12.3056 33.0661 8.5 28.3716 8.5Z" fill="#F24822"/>
</svg>
